<svg width="385" height="255" viewBox="0 0 385 255" fill="none" xmlns="http://www.w3.org/2000/svg">
<rect x="0.761719" y="0.514404" width="384.238" height="254" rx="35.5556" fill="#FFF6E2"/>
<path d="M0.761719 36.07C0.761719 16.4332 16.6805 0.514404 36.3173 0.514404H131.164V254.514H36.3173C16.6805 254.514 0.761719 238.596 0.761719 218.959V36.07Z" fill="#CFFCFF"/>
<path d="M254.598 0.514404H349.444C369.081 0.514404 385 16.4332 385 36.07V218.959C385 238.596 369.081 254.514 349.444 254.514H254.598V0.514404Z" fill="#FCDEFF"/>
<path d="M291.428 36.5144L288.442 44.5144L280.479 47.5144L288.442 50.5144L291.428 58.5144L294.415 50.5144L302.378 47.5144L294.415 44.5144L291.428 36.5144Z" fill="#008060"/>
<path d="M53.5191 180.514L50.5328 188.514L42.5693 191.514L50.5328 194.514L53.5191 202.514L56.5054 194.514L64.4689 191.514L56.5054 188.514L53.5191 180.514Z" fill="#008060"/>
<path d="M353.145 208.514L350.159 216.514L342.195 219.514L350.159 222.514L353.145 230.514L356.131 222.514L364.095 219.514L356.131 216.514L353.145 208.514Z" fill="#008060"/>
</svg>
