<svg width="24" height="25" viewBox="0 0 24 25" fill="none" xmlns="http://www.w3.org/2000/svg">
<path fill-rule="evenodd" clip-rule="evenodd" d="M12.315 2.55957C14.745 2.55957 15.099 2.57257 16.123 2.61957C17.187 2.66857 17.914 2.83757 18.55 3.08457C19.2175 3.33544 19.8222 3.72893 20.322 4.23757C20.8306 4.73734 21.2241 5.34207 21.475 6.00957C21.722 6.64557 21.891 7.37257 21.94 8.43657C21.988 9.50357 22 9.84357 22 12.5596V12.6396C22 15.2826 21.988 15.6266 21.94 16.6826C21.891 17.7466 21.722 18.4736 21.475 19.1096C21.2241 19.7771 20.8306 20.3818 20.322 20.8816C19.8222 21.3902 19.2175 21.7837 18.55 22.0346C17.914 22.2816 17.187 22.4506 16.123 22.4996C15.056 22.5476 14.716 22.5596 12 22.5596H11.92C9.277 22.5596 8.933 22.5476 7.877 22.4996C6.813 22.4506 6.086 22.2816 5.45 22.0346C4.7825 21.7837 4.17777 21.3902 3.678 20.8816C3.16936 20.3818 2.77587 19.7771 2.525 19.1096C2.278 18.4736 2.109 17.7466 2.06 16.6826C2.013 15.6586 2 15.3036 2 12.8746V12.2446C2 9.81457 2.013 9.46057 2.06 8.43657C2.109 7.37257 2.278 6.64557 2.525 6.00957C2.77587 5.34207 3.16936 4.73734 3.678 4.23757C4.17777 3.72893 4.7825 3.33544 5.45 3.08457C6.086 2.83757 6.813 2.66857 7.877 2.61957C8.901 2.57257 9.256 2.55957 11.685 2.55957H12.315ZM12.234 4.36157H11.766C9.31 4.36157 8.982 4.37257 7.959 4.41957C6.984 4.46457 6.455 4.62657 6.102 4.76357C5.635 4.94557 5.302 5.16157 4.952 5.51157C4.602 5.86157 4.386 6.19457 4.204 6.66157C4.067 7.01457 3.904 7.54357 3.86 8.51857C3.813 9.54157 3.802 9.86957 3.802 12.3256V12.7936C3.802 15.2496 3.813 15.5776 3.86 16.6006C3.905 17.5756 4.067 18.1046 4.204 18.4576C4.386 18.9236 4.603 19.2576 4.952 19.6076C5.302 19.9576 5.635 20.1736 6.102 20.3556C6.455 20.4926 6.984 20.6556 7.959 20.6996C9.013 20.7476 9.329 20.7576 12 20.7576H12.08C14.677 20.7576 14.997 20.7476 16.04 20.6996C17.016 20.6546 17.545 20.4926 17.898 20.3556C18.364 20.1736 18.698 19.9576 19.048 19.6076C19.398 19.2576 19.614 18.9246 19.796 18.4576C19.933 18.1046 20.096 17.5756 20.14 16.6006C20.188 15.5456 20.198 15.2306 20.198 12.5596V12.4796C20.198 9.88257 20.188 9.56257 20.14 8.51957C20.095 7.54357 19.933 7.01457 19.796 6.66157C19.6358 6.22714 19.3802 5.83417 19.048 5.51157C18.7254 5.17943 18.3324 4.92383 17.898 4.76357C17.545 4.62657 17.016 4.46357 16.041 4.41957C15.018 4.37257 14.69 4.36157 12.234 4.36157ZM12 7.42457C12.6743 7.42457 13.3421 7.55739 13.9651 7.81545C14.5881 8.07351 15.1542 8.45175 15.631 8.92858C16.1078 9.40541 16.4861 9.97148 16.7441 10.5945C17.0022 11.2175 17.135 11.8852 17.135 12.5596C17.135 13.2339 17.0022 13.9016 16.7441 14.5246C16.4861 15.1477 16.1078 15.7137 15.631 16.1906C15.1542 16.6674 14.5881 17.0456 13.9651 17.3037C13.3421 17.5617 12.6743 17.6946 12 17.6946C10.6381 17.6946 9.33201 17.1536 8.36901 16.1906C7.40601 15.2276 6.865 13.9215 6.865 12.5596C6.865 11.1977 7.40601 9.89158 8.36901 8.92858C9.33201 7.96558 10.6381 7.42457 12 7.42457ZM12 9.22657C11.116 9.22657 10.2683 9.57772 9.64321 10.2028C9.01815 10.8278 8.667 11.6756 8.667 12.5596C8.667 13.4435 9.01815 14.2913 9.64321 14.9164C10.2683 15.5414 11.116 15.8926 12 15.8926C12.884 15.8926 13.7317 15.5414 14.3568 14.9164C14.9818 14.2913 15.333 13.4435 15.333 12.5596C15.333 11.6756 14.9818 10.8278 14.3568 10.2028C13.7317 9.57772 12.884 9.22657 12 9.22657ZM17.338 6.02157C17.6563 6.02157 17.9615 6.148 18.1865 6.37304C18.4116 6.59809 18.538 6.90331 18.538 7.22157C18.538 7.53983 18.4116 7.84505 18.1865 8.0701C17.9615 8.29514 17.6563 8.42157 17.338 8.42157C17.0197 8.42157 16.7145 8.29514 16.4895 8.0701C16.2644 7.84505 16.138 7.53983 16.138 7.22157C16.138 6.90331 16.2644 6.59809 16.4895 6.37304C16.7145 6.148 17.0197 6.02157 17.338 6.02157Z" fill="#9CA3AF"/>
</svg>
