<svg width="24" height="25" viewBox="0 0 24 25" fill="none" xmlns="http://www.w3.org/2000/svg">
<path fill-rule="evenodd" clip-rule="evenodd" d="M12 2.55957C6.48 2.55957 2 7.03957 2 12.5596C2 18.0796 6.48 22.5596 12 22.5596C17.51 22.5596 22 18.0796 22 12.5596C22 7.03957 17.51 2.55957 12 2.55957ZM18.605 7.16957C19.8357 8.66888 20.5167 10.5439 20.535 12.4836C20.254 12.4296 17.434 11.8546 14.592 12.2126C14.527 12.0716 14.472 11.9196 14.408 11.7676C14.231 11.3506 14.043 10.9385 13.844 10.5316C16.989 9.25157 18.421 7.40757 18.605 7.16957ZM12 4.03457C14.17 4.03457 16.154 4.84757 17.662 6.18257C17.51 6.39857 16.219 8.12357 13.182 9.26257C11.783 6.69257 10.232 4.58757 9.993 4.26257C10.6509 4.10879 11.3244 4.03227 12 4.03457ZM8.367 4.83757C9.51144 6.42388 10.5687 8.07132 11.534 9.77257C7.542 10.8356 4.017 10.8126 3.638 10.8126C3.91283 9.5197 4.48261 8.30779 5.3029 7.27136C6.12319 6.23494 7.17182 5.40202 8.367 4.83757ZM3.453 12.5696V12.3096C3.823 12.3196 7.965 12.3746 12.228 11.0946C12.478 11.5716 12.705 12.0596 12.922 12.5476C12.813 12.5806 12.694 12.6126 12.586 12.6456C8.182 14.0656 5.839 17.9486 5.644 18.2746C4.23384 16.709 3.45264 14.6766 3.453 12.5696ZM12 21.1066C10.1014 21.1098 8.25667 20.476 6.761 19.3066C6.913 18.9916 8.649 15.6506 13.464 13.9696C13.486 13.9596 13.497 13.9596 13.518 13.9476C14.3303 16.043 14.9407 18.2112 15.341 20.4226C14.2858 20.8766 13.1487 21.1094 12 21.1066ZM16.761 19.6416C16.675 19.1216 16.219 16.6266 15.102 13.5576C17.781 13.1346 20.124 13.8286 20.416 13.9266C20.2336 15.0797 19.8148 16.1826 19.1858 17.1661C18.5568 18.1496 17.7313 18.9924 16.761 19.6416Z" fill="#9CA3AF"/>
</svg>
