<svg width="24" height="25" viewBox="0 0 24 25" fill="none" xmlns="http://www.w3.org/2000/svg">
<path d="M8.29 20.813C15.837 20.813 19.965 14.56 19.965 9.13797C19.965 8.95997 19.965 8.78297 19.953 8.60797C20.7562 8.0265 21.4493 7.30658 22 6.48197C21.2511 6.81397 20.4566 7.03173 19.643 7.12797C20.4996 6.61503 21.1408 5.80832 21.447 4.85797C20.6417 5.33586 19.7607 5.6727 18.842 5.85397C18.2234 5.19573 17.405 4.7598 16.5136 4.61367C15.6222 4.46754 14.7075 4.61937 13.9111 5.04564C13.1147 5.47191 12.4811 6.14884 12.1083 6.97163C11.7355 7.79442 11.6444 8.71715 11.849 9.59697C10.2176 9.51521 8.6216 9.09129 7.16465 8.35274C5.70769 7.61418 4.42233 6.57749 3.392 5.30997C2.86732 6.21317 2.70659 7.28239 2.94254 8.29993C3.17848 9.31748 3.79337 10.2068 4.662 10.787C4.00926 10.7681 3.37063 10.5925 2.8 10.275V10.327C2.80039 11.2743 3.1284 12.1923 3.7284 12.9253C4.3284 13.6584 5.16347 14.1614 6.092 14.349C5.48781 14.5137 4.85389 14.5376 4.239 14.419C4.50116 15.2344 5.01168 15.9476 5.69913 16.4586C6.38658 16.9696 7.21657 17.2529 8.073 17.269C7.22212 17.9375 6.24779 18.4318 5.20573 18.7235C4.16367 19.0152 3.07432 19.0986 2 18.969C3.8766 20.1733 6.06019 20.8121 8.29 20.809" fill="#9CA3AF"/>
</svg>
