<svg xmlns="http://www.w3.org/2000/svg" width="34" height="34" viewBox="0 0 34 34" fill="none">
  <g clip-path="url(#clip0_337_2256)">
    <path d="M16.7113 5.65551C16.3279 5.28896 15.8145 5.08973 15.2842 5.10166C14.7539 5.11358 14.2501 5.33567 13.8836 5.71908L11.1194 8.61036C11.5028 8.9769 11.7249 9.48075 11.7368 10.011C11.7487 10.5413 11.5495 11.0547 11.183 11.4381C10.8164 11.8215 10.3126 12.0436 9.78228 12.0555C9.25198 12.0674 8.73866 11.8682 8.35526 11.5016L5.59111 14.3929C5.22456 14.7763 5.02533 15.2896 5.03725 15.8199C5.04918 16.3502 5.27127 16.8541 5.65468 17.2206L17.2198 28.2772C17.6032 28.6438 18.1165 28.843 18.6468 28.8311C19.1771 28.8191 19.681 28.5971 20.0475 28.2136L22.8116 25.3224C22.4282 24.9558 22.2061 24.452 22.1942 23.9217C22.1823 23.3914 22.3815 22.8781 22.7481 22.4947C23.1146 22.1112 23.6185 21.8892 24.1488 21.8772C24.6791 21.8653 25.1924 22.0645 25.5758 22.4311L28.3399 19.5398C28.7065 19.1564 28.9057 18.6431 28.8938 18.1128C28.8819 17.5825 28.6598 17.0786 28.2764 16.7121L16.7113 5.65551ZM22.9506 15.7709L22.9983 17.8917L10.9805 18.1618L10.9328 16.041L22.9506 15.7709ZM18.0873 11.1768C18.7956 11.854 18.8207 12.9709 18.1435 13.6793C17.8191 14.0186 17.3732 14.2152 16.9039 14.2257C16.4346 14.2363 15.9803 14.0599 15.641 13.7356C14.9326 13.0583 14.9075 11.9414 15.5847 11.233C15.9091 10.8937 16.355 10.6972 16.8244 10.6866C17.2937 10.6761 17.748 10.8524 18.0873 11.1768ZM18.29 20.1972C18.9984 20.8744 19.0235 21.9913 18.3463 22.6997C18.0219 23.039 17.576 23.2356 17.1067 23.2461C16.6374 23.2567 16.1831 23.0803 15.8438 22.756C15.1354 22.0787 15.1103 20.9618 15.7875 20.2534C16.1119 19.9141 16.5578 19.7176 17.0271 19.707C17.4965 19.6965 17.9507 19.8728 18.29 20.1972Z" fill="#008060"/>
  </g>
  <defs>
    <clipPath id="clip0_337_2256">
      <rect width="24" height="24" fill="white" transform="translate(16.584) rotate(43.7122)"/>
    </clipPath>
  </defs>
</svg>