<svg width="24px" height="24px" viewBox="0 0 24 24" fill="none" xmlns="http://www.w3.org/2000/svg"><g clip-path="url(#whatsapp_unbordered_a)"><path d="M20.426 3.49A11.83 11.83 0 0 0 12.005 0C5.443 0 .103 5.338.1 11.9c0 2.098.547 4.145 1.589 5.95L0 24.017l6.31-1.655A11.897 11.897 0 0 0 12 23.81h.005c6.56 0 11.902-5.34 11.904-11.901a11.829 11.829 0 0 0-3.483-8.42zM12.005 21.8H12a9.882 9.882 0 0 1-5.036-1.378l-.362-.215-3.745.982 1-3.65-.235-.374a9.865 9.865 0 0 1-1.513-5.264c.002-5.454 4.44-9.89 9.899-9.89a9.83 9.83 0 0 1 6.995 2.9 9.831 9.831 0 0 1 2.895 6.998c-.002 5.454-4.44 9.892-9.894 9.892z" fill="#E0E0E0"></path><path d="m.546 23.332 1.612-5.885A11.335 11.335 0 0 1 .641 11.77C.644 5.508 5.741.413 12.002.413a11.288 11.288 0 0 1 8.036 3.33c2.145 2.147 3.326 5 3.325 8.035-.003 6.262-5.1 11.357-11.36 11.357-.001 0 0 0 0 0h-.006c-1.9 0-3.769-.478-5.428-1.382l-6.023 1.58z" fill="url(#whatsapp_unbordered_b)"></path><path fill-rule="evenodd" clip-rule="evenodd" d="M9.063 6.848c-.22-.49-.452-.5-.662-.508-.171-.007-.368-.007-.563-.007a1.08 1.08 0 0 0-.785.368c-.27.294-1.029 1.005-1.029 2.452s1.054 2.845 1.2 3.041c.148.196 2.035 3.26 5.024 4.438 2.484.98 2.99.785 3.528.736.54-.049 1.74-.711 1.985-1.398.245-.686.245-1.275.172-1.398-.074-.122-.27-.196-.564-.343-.294-.147-1.74-.858-2.01-.956-.269-.098-.465-.147-.661.147s-.76.956-.93 1.152c-.172.197-.344.221-.638.074-.294-.147-1.241-.457-2.365-1.459-.874-.78-1.464-1.742-1.635-2.036-.172-.294-.019-.454.129-.6.132-.132.294-.343.44-.515.148-.172.197-.294.295-.49.098-.197.049-.368-.025-.515-.073-.148-.645-1.602-.906-2.183z" fill="#fff"></path><path d="M20.328 3.453a11.695 11.695 0 0 0-8.324-3.45C5.517.002.238 5.28.236 11.765c0 2.073.54 4.097 1.57 5.881L.138 23.743l6.239-1.635a11.761 11.761 0 0 0 5.623 1.432h.005c6.486 0 11.765-5.278 11.768-11.764a11.693 11.693 0 0 0-3.444-8.323zm-8.324 18.1H12a9.77 9.77 0 0 1-4.978-1.363l-.357-.212-3.702.97.988-3.608-.233-.37a9.752 9.752 0 0 1-1.495-5.203c.002-5.391 4.39-9.778 9.785-9.778a9.717 9.717 0 0 1 6.915 2.868 9.718 9.718 0 0 1 2.862 6.918c-.002 5.391-4.39 9.778-9.781 9.778z" fill="#fff"></path></g><defs><linearGradient id="whatsapp_unbordered_b" x1="11.954" y1="23.332" x2="11.954" y2=".413" gradientUnits="userSpaceOnUse"><stop stop-color="#20B038"></stop><stop offset="1" stop-color="#60D66A"></stop></linearGradient><clipPath id="whatsapp_unbordered_a"><path fill="#fff" d="M0 0h24v24H0z"></path></clipPath></defs></svg>