<svg width="25" height="24" viewBox="0 0 25 24" fill="none" xmlns="http://www.w3.org/2000/svg">
<path d="M5.4375 7H19.2275C19.5069 7.00001 19.7832 7.05857 20.0386 7.17191C20.294 7.28524 20.5229 7.45083 20.7104 7.65801C20.8978 7.86519 21.0398 8.10936 21.1272 8.37478C21.2145 8.64019 21.2453 8.92097 21.2175 9.199L20.6175 15.199C20.5682 15.6925 20.3372 16.1501 19.9695 16.4829C19.6017 16.8157 19.1235 17 18.6275 17H9.0775C8.61497 17.0002 8.16668 16.84 7.80894 16.5469C7.45121 16.2537 7.20616 15.8456 7.1155 15.392L5.4375 7Z" stroke="#3F3F46" stroke-linejoin="round"/>
<path d="M5.4375 7L4.6275 3.757C4.57333 3.54075 4.44845 3.34881 4.27271 3.21166C4.09696 3.0745 3.88043 3.00001 3.6575 3H2.4375M8.4375 21H10.4375M16.4375 21H18.4375" stroke="#3F3F46" stroke-linecap="round" stroke-linejoin="round"/>
</svg>
