<svg width="25" height="24" viewBox="0 0 25 24" fill="none" xmlns="http://www.w3.org/2000/svg">
<path d="M19.5087 13.142L13.8517 18.8C13.4766 19.1749 12.968 19.3856 12.4377 19.3856C11.9074 19.3856 11.3988 19.1749 11.0237 18.8L5.3667 13.143C4.89907 12.6794 4.52761 12.1281 4.27363 11.5206C4.01966 10.9131 3.88817 10.2614 3.88673 9.60297C3.88529 8.94452 4.01392 8.29227 4.26523 7.68366C4.51654 7.07505 4.88559 6.52208 5.35118 6.05648C5.81678 5.59089 6.36975 5.22184 6.97836 4.97053C7.58697 4.71922 8.23922 4.59059 8.89767 4.59203C9.55612 4.59347 10.2078 4.72495 10.8153 4.97893C11.4228 5.23291 11.9742 5.60437 12.4377 6.072C13.3793 5.15387 14.6446 4.64367 15.9597 4.65191C17.2748 4.66015 18.5337 5.18617 19.4637 6.11603C20.3937 7.04588 20.9199 8.30469 20.9283 9.61977C20.9367 10.9349 20.4267 12.2003 19.5087 13.142Z" stroke="#3F3F46" stroke-linecap="round" stroke-linejoin="round"/>
</svg>
