<svg width="32" height="32" viewBox="0 0 32 32" fill="none" xmlns="http://www.w3.org/2000/svg"><path d="M13.338 15.8v3.24H12.31v-8h2.724a2.477 2.477 0 0 1 1.767.695c.479.428.747 1.046.734 1.684a2.232 2.232 0 0 1-.734 1.698c-.478.453-1.065.682-1.76.682h-1.704zm0-3.778v2.795h1.723c.382.012.752-.14 1.014-.415a1.361 1.361 0 0 0 .026-1.927l-.026-.025a1.326 1.326 0 0 0-1.014-.421l-1.723-.007zm6.565 1.365c.76 0 1.36.205 1.8.607.44.408.657.963.657 1.671v3.37h-.983v-.76h-.044c-.428.625-.99.938-1.698.938-.6 0-1.11-.179-1.512-.536a1.692 1.692 0 0 1-.606-1.34c0-.568.217-1.014.644-1.353.428-.338 1.002-.504 1.717-.504.612 0 1.11.115 1.506.332v-.236c0-.35-.154-.683-.422-.906a1.493 1.493 0 0 0-.989-.377c-.574 0-1.027.243-1.365.728l-.906-.568c.491-.708 1.225-1.066 2.201-1.066zm-1.327 3.976c0 .268.128.516.338.67.23.178.51.274.798.267.434 0 .848-.172 1.155-.478.338-.32.51-.696.51-1.13-.319-.255-.765-.382-1.34-.382-.415 0-.765.102-1.046.3-.274.204-.415.453-.415.753zM28 13.566l-3.433 7.886h-1.059l1.276-2.756-2.258-5.123h1.116l1.627 3.93h.026l1.588-3.93L28 13.566z" fill="#5F6368"></path><path d="M9.184 15.098c0-.313-.025-.626-.076-.932H4.775v1.767h2.482a2.127 2.127 0 0 1-.918 1.398v1.148h1.48c.868-.797 1.365-1.978 1.365-3.381z" fill="#4285F4"></path><path d="M4.775 19.59c1.238 0 2.285-.409 3.044-1.11l-1.48-1.15c-.415.281-.945.441-1.564.441-1.2 0-2.214-.81-2.577-1.895H.673v1.187a4.6 4.6 0 0 0 4.102 2.526z" fill="#34A853"></path><path d="M2.197 15.876a2.772 2.772 0 0 1 0-1.761v-1.18H.673a4.555 4.555 0 0 0 0 4.121l1.524-1.18z" fill="#FBBC04"></path><path d="M4.775 12.22a2.472 2.472 0 0 1 1.761.69L7.844 11.6a4.386 4.386 0 0 0-3.069-1.2 4.595 4.595 0 0 0-4.102 2.534l1.525 1.186c.363-1.09 1.378-1.9 2.577-1.9z" fill="#EA4335"></path></svg>