<svg width="32" height="32" viewBox="0 0 32 32" fill="none" xmlns="http://www.w3.org/2000/svg"><path fill-rule="evenodd" clip-rule="evenodd" d="M16.007 22.086a8.064 8.064 0 0 0 5.473 2.13c4.513 0 8.166-3.681 8.166-8.21 0-4.541-3.653-8.223-8.166-8.223a8.063 8.063 0 0 0-5.473 2.13 8.243 8.243 0 0 0-2.695 6.094 8.19 8.19 0 0 0 2.695 6.08z" fill="#E9B040"></path><path fill-rule="evenodd" clip-rule="evenodd" d="M28.561 20.577c0-.141.113-.254.254-.254.155 0 .268.113.268.254a.26.26 0 0 1-.268.268c-.14 0-.254-.112-.254-.268zm.254.212a.217.217 0 0 0 .212-.212c0-.113-.099-.197-.212-.197a.201.201 0 0 0-.197.197c0 .113.099.212.197.212zm-.028-.085h-.056v-.24h.098c.015 0 .043 0 .057.015.028.014.028.028.028.056s-.014.056-.042.056l.056.113h-.07l-.029-.099h-.042v.1-.142h.057c.014 0 .014-.014.014-.028s0-.014-.014-.028h-.057v.197z" fill="#E9B040"></path><path fill-rule="evenodd" clip-rule="evenodd" d="M18.645 15.132c-.028-.296-.084-.578-.14-.874H13.51c.056-.296.14-.579.225-.86h4.528a9.434 9.434 0 0 0-.338-.875h-3.837c.141-.3.297-.591.466-.875h2.891a7.428 7.428 0 0 0-.62-.86h-1.65c.255-.312.533-.604.832-.875a8.166 8.166 0 0 0-5.487-2.13c-4.5 0-8.167 3.682-8.167 8.224 0 4.528 3.667 8.209 8.166 8.209a8.1 8.1 0 0 0 5.488-2.13 7.82 7.82 0 0 0 .818-.86h-1.65a9.748 9.748 0 0 1-.621-.875h2.891c.182-.279.343-.571.48-.875h-3.837a9.187 9.187 0 0 1-.353-.86h4.528a8.79 8.79 0 0 0 .24-.875c.056-.282.113-.578.141-.874a8.857 8.857 0 0 0 0-1.735z" fill="#CC2131"></path><path fill-rule="evenodd" clip-rule="evenodd" d="M28.561 17.911c0-.155.113-.267.254-.267a.26.26 0 0 1 .268.267.268.268 0 0 1-.268.268c-.14 0-.254-.127-.254-.268zm.254.198c.113 0 .212-.085.212-.198 0-.112-.099-.197-.212-.197a.202.202 0 0 0-.197.197c0 .113.099.198.197.198zm-.028-.085h-.056v-.226h.155c.028.015.028.043.028.071 0 .014-.014.042-.042.057l.056.098h-.07l-.029-.084h-.042v.084-.127h.028c.014 0 .029 0 .029-.014.014 0 .014-.014.014-.028 0 0 0-.014-.014-.014 0-.015-.015 0-.029 0h-.028v.183z" fill="#fff"></path><path fill-rule="evenodd" clip-rule="evenodd" d="M13.228 18.377c-.268.07-.465.113-.662.113-.424 0-.678-.268-.678-.748 0-.099.014-.197.029-.31l.056-.324.042-.268.381-2.314h.846l-.098.508h.536l-.127.846h-.536l-.226 1.383c-.014.07-.014.112-.014.14 0 .184.085.255.296.255.099 0 .184-.014.268-.029l-.113.748zm2.737-.028c-.31.084-.592.127-.903.127-.959 0-1.51-.508-1.51-1.51 0-1.17.65-2.017 1.552-2.017.72 0 1.185.48 1.185 1.227 0 .254-.028.494-.098.833h-1.764c-.014.056-.014.084-.014.113 0 .395.268.592.776.592.324 0 .607-.07.917-.211l-.141.846zm-.522-2.017v-.17c0-.282-.155-.437-.423-.437-.282 0-.48.212-.564.606h.987zm-8.985 2.087h-.875l.508-3.202-1.143 3.202h-.606l-.07-3.188-.537 3.188h-.86l.691-4.16H4.85l.028 2.567.86-2.568H7.15l-.691 4.161zm2.13-1.509c-.085-.014-.113-.014-.17-.014-.507 0-.761.197-.761.508 0 .211.127.352.324.352.423 0 .593-.352.607-.846zm.705 1.51h-.762l.015-.353c-.198.267-.466.409-.931.409-.424 0-.79-.381-.79-.931 0-.155.028-.296.07-.437.141-.523.663-.847 1.467-.861.099 0 .254 0 .395.014.028-.113.028-.155.028-.226 0-.225-.183-.296-.592-.296-.254 0-.536.042-.734.113l-.127.028-.056.014.127-.761c.409-.127.705-.184 1.03-.184.761 0 1.17.353 1.17 1.002 0 .169.014.296-.042.663l-.197 1.213-.029.211-.014.17-.014.113-.014.098zm10.932-3.358c.254 0 .48.07.79.226l.155-.903c-.085-.042-.113-.042-.226-.085l-.352-.099a1.738 1.738 0 0 0-.41-.042c-.437 0-.69.014-.958.17-.142.098-.325.225-.523.45l-.113-.027-.902.634.042-.352h-.931l-.55 3.385h.889l.324-1.82s.127-.254.184-.338c.169-.212.31-.212.493-.212h.071c-.03.215-.044.432-.042.65 0 1.1.62 1.79 1.58 1.79.24 0 .451-.028.775-.112l.156-.96c-.282.156-.537.226-.748.226-.522 0-.832-.395-.832-1.015 0-.917.465-1.566 1.128-1.566zm7.49-.804-.198 1.185c-.211-.324-.465-.48-.804-.48-.466 0-.903.268-1.17.776v-.014l-.565-.338.057-.353h-.945l-.537 3.385h.875l.296-1.82s.226-.253.282-.338a.55.55 0 0 1 .395-.211 3.05 3.05 0 0 0-.155 1.001c0 .847.437 1.41 1.086 1.41.325 0 .579-.112.818-.38l-.042.338h.832l.677-4.16h-.902zm-1.086 3.357c-.297 0-.452-.225-.452-.663 0-.663.282-1.142.691-1.142.31 0 .466.24.466.663 0 .677-.282 1.142-.705 1.142zm-4.077-.705c-.084-.014-.113-.014-.169-.014-.508 0-.762.197-.762.508 0 .211.127.352.325.352.423 0 .592-.352.606-.846zm.706 1.51h-.776l.028-.353c-.198.267-.466.409-.931.409-.437 0-.818-.367-.818-.931 0-.804.606-1.298 1.565-1.298.1 0 .254 0 .381.014.029-.113.043-.155.043-.225 0-.226-.183-.297-.607-.297-.24 0-.536.043-.733.113l-.113.028-.056.014.126-.761c.41-.127.706-.184 1.03-.184.762 0 1.157.353 1.157 1.002 0 .17.028.296-.042.663l-.184 1.213-.028.212-.028.169-.014.113v.098zM11.14 15.752c.17 0 .409.014.663.057l.127-.79c-.254-.028-.593-.07-.79-.07-.988 0-1.312.535-1.312 1.156 0 .41.183.705.663.93.353.17.41.198.41.354 0 .21-.184.338-.523.338-.268 0-.522-.043-.804-.141l-.099.776.014.014.17.028c.056.014.127.028.225.042.212.014.395.028.508.028.988 0 1.397-.38 1.397-1.128 0-.465-.226-.747-.663-.945-.381-.17-.424-.197-.424-.353 0-.155.17-.296.438-.296z" fill="#1B3771"></path><path fill-rule="evenodd" clip-rule="evenodd" d="m21.41 14.117-.156.903c-.31-.156-.536-.226-.79-.226-.663 0-1.128.649-1.128 1.566 0 .634.31 1.015.832 1.015.211 0 .465-.07.747-.211l-.155.945c-.324.084-.536.127-.776.127-.959 0-1.551-.692-1.551-1.806 0-1.48.818-2.525 1.989-2.525.155 0 .296.014.409.043l.352.084c.113.043.142.057.226.085zm-2.85.62h-.085c-.296 0-.465.142-.733.55l.084-.521h-.804l-.55 3.385h.89c.323-2.074.408-2.426.831-2.426h.057c.084-.41.197-.706.338-.974l-.028-.013zm-5.106 3.372a1.83 1.83 0 0 1-.635.112c-.451 0-.705-.253-.705-.747 0-.085.014-.197.028-.296l.056-.339.043-.267.38-2.314h.875l-.099.508h.452l-.113.832h-.452l-.24 1.41c-.014.057-.014.1-.014.142 0 .169.085.24.297.24.098 0 .183 0 .24-.029l-.113.748zm-3.4-2.271c0 .423.198.719.663.945.367.17.423.225.423.366 0 .212-.155.31-.508.31-.268 0-.507-.041-.79-.126l-.126.776.042.014.155.028a.929.929 0 0 0 .24.028c.197.029.367.029.48.029.93 0 1.368-.353 1.368-1.129 0-.466-.183-.734-.62-.945-.382-.17-.424-.212-.424-.367 0-.183.155-.268.437-.268.17 0 .41.014.635.043l.127-.776a5.113 5.113 0 0 0-.776-.07c-.987 0-1.34.521-1.326 1.142zm18.112 2.313h-.832l.042-.325c-.24.254-.494.367-.819.367-.648 0-1.071-.55-1.071-1.396 0-1.129.663-2.088 1.438-2.088.353 0 .607.155.847.466l.197-1.185h.875l-.677 4.161zm-1.298-.79c.41 0 .691-.48.691-1.143 0-.437-.155-.662-.465-.662-.395 0-.691.465-.691 1.128 0 .452.155.677.465.677zm-10.706.72c-.31.098-.593.14-.917.14-.987 0-1.495-.521-1.495-1.523 0-1.157.649-2.017 1.537-2.017.734 0 1.2.48 1.2 1.227 0 .254-.03.494-.114.847h-1.749c-.014.042-.014.07-.014.099 0 .395.268.592.776.592.325 0 .607-.057.917-.212l-.141.846zm-.494-2.018v-.169c0-.282-.155-.437-.423-.437-.282 0-.48.211-.564.606h.987zm-8.985 2.088h-.875l.508-3.202-1.142 3.202h-.607l-.07-3.174-.536 3.174h-.818l.69-4.161h1.27l.043 2.581.846-2.581h1.382l-.691 4.161zm2.186-1.51c-.084 0-.127-.013-.197-.013-.494 0-.748.183-.748.521 0 .212.113.339.31.339.367 0 .621-.338.635-.846zm.65 1.51h-.734l.014-.353c-.226.282-.522.41-.931.41-.48 0-.804-.367-.804-.917 0-.832.564-1.312 1.551-1.312.099 0 .226.014.367.028.028-.113.028-.155.028-.212 0-.225-.155-.31-.564-.31-.254 0-.536.029-.734.085l-.127.042-.084.014.127-.761c.437-.127.733-.17 1.058-.17.761 0 1.17.339 1.17.988 0 .169-.014.296-.07.677l-.198 1.199-.028.211-.014.17-.014.127-.014.084zm13.315-1.51c-.099 0-.141-.013-.197-.013-.508 0-.762.183-.762.521 0 .212.127.339.324.339.353 0 .62-.338.635-.846zm.649 1.51h-.734l.014-.353c-.225.282-.522.41-.93.41-.48 0-.805-.367-.805-.917 0-.832.564-1.312 1.552-1.312.099 0 .226.014.353.028.028-.113.042-.155.042-.212 0-.225-.155-.31-.564-.31-.254 0-.55.029-.748.085l-.113.042-.084.014.127-.761c.437-.127.733-.17 1.058-.17.761 0 1.156.339 1.156.988 0 .169 0 .296-.07.677l-.184 1.199-.028.211-.028.17-.014.127v.084zm2.37-3.413h-.085c-.296 0-.466.14-.734.55l.085-.522h-.804l-.536 3.385h.874c.325-2.074.41-2.426.833-2.426h.056c.085-.41.198-.706.339-.974l-.029-.013z" fill="#fff"></path></svg>