<svg width="36" height="32" viewBox="0 0 36 32" fill="none" xmlns="http://www.w3.org/2000/svg"><path d="m26.384 12.216.252-.202c.875-.743 1.997-.661 2.746.22.076.089.114.095.19.02.05-.057.106-.101.157-.158.586-.573 1.36-.743 2.085-.422.762.34 1.172.939 1.178 1.777.013 1.808.007 3.61.007 5.418 0 .642-.397 1.045-1.034 1.045-.252 0-.504-.019-.756.007-.258.025-.334-.057-.334-.328.013-1.764.007-3.528.007-5.292v-.22c-.007-.41-.17-.58-.561-.599-.353-.019-.599.196-.636.555-.007.081 0 .17 0 .252v4.567c0 .668-.385 1.058-1.052 1.052-.34-.006-.8.151-.996-.07-.17-.188-.056-.636-.056-.97v-4.693c0-.554-.36-.838-.826-.649-.29.12-.384.353-.384.655.006 1.462 0 2.917 0 4.379v.346c-.019.611-.41.996-1.014 1.002-.252.006-.504-.019-.756.006-.271.025-.353-.05-.347-.34.013-2.476.006-4.952.006-7.434 0-.107.007-.208 0-.315-.012-.138.045-.182.183-.182.58.006 1.153.006 1.733 0 .145 0 .214.037.201.195-.012.113 0 .214.007.378z" fill="#02B9EF"></path><path d="M13.027 15.63v2.583c-.006 1.122-.592 1.701-1.713 1.708-.492 0-.99.006-1.48 0-.996-.013-1.727-.674-1.777-1.67a20.243 20.243 0 0 1-.007-2.142c.05-1.02.832-1.739 1.865-1.751.271-.007.548 0 .82 0 .264-.007.365-.158.358-.41 0-.252-.113-.365-.365-.353-.284.007-.567.007-.85 0-.694-.012-1.078-.39-1.072-1.07 0-.278-.126-.65.057-.813.158-.139.517-.05.788-.05.705-.007 1.405 0 2.11 0 .75 0 1.26.51 1.266 1.266.007.894 0 1.801 0 2.702zM11.1 17.06v-.315c0-.642 0-.642-.643-.617-.321.013-.498.177-.504.51-.006.265-.006.523 0 .788.006.453.208.573.863.592.485.013.24-.328.284-.517.025-.138-.007-.296 0-.44zm7.534-2.116c0 .964.013 1.934-.006 2.898-.013.743-.189 1.417-.907 1.814-.29.158-.605.246-.933.252-.724.013-1.449 0-2.173.013-.177 0-.214-.063-.208-.22.013-.265-.006-.524.006-.788a.919.919 0 0 1 .901-.908c.328-.012.65-.006.977 0 .264 0 .41-.107.41-.39 0-.29-.14-.39-.404-.397-.441-.013-.882.05-1.317-.076-.75-.22-1.297-.844-1.316-1.619-.038-1.228-.013-2.457-.02-3.685 0-.139.045-.183.184-.177.516.007 1.026.013 1.543 0 .227-.006.195.12.195.259v2.772c0 .403.19.617.542.63.416.012.598-.158.598-.58 0-.932.007-1.871-.006-2.803 0-.22.057-.284.277-.278.46.02.927.026 1.386 0 .252-.012.29.082.284.303-.019.989-.013 1.984-.013 2.98zm-16.052 1.43v-3.087c0-1.008.618-1.638 1.632-1.626.661.007 1.323-.075 1.978.05.838.165 1.367.813 1.373 1.677.007.913 0 1.827 0 2.74 0 1.147-.674 1.846-1.82 1.877a19.06 19.06 0 0 1-1.04 0c-.157-.006-.227.044-.22.215.012.252.006.504 0 .756-.013.541-.397.932-.933.938-.315.007-.712.133-.913-.05-.19-.17-.05-.573-.057-.876-.006-.87 0-1.745 0-2.614zm1.903-1.544v.599c0 .712 0 .712.712.649.308-.026.453-.177.46-.485.006-.353-.013-.712.006-1.065.038-1.02-.151-.92-.983-.926-.151 0-.202.044-.202.195.013.34.007.687.007 1.033z" fill="#06306F"></path><path d="M20.418 16.386c0-.838-.007-1.682.006-2.52 0-.195-.044-.277-.258-.27-.284.012-.662.094-.82-.045-.195-.182-.044-.573-.069-.875v-.063c0-.296-.094-.643.032-.863.126-.22.51-.082.78-.152.536-.138.94-.447 1.267-.875.227-.29.51-.498.876-.567.195-.038.315-.013.302.24-.019.352 0 .711-.006 1.07-.006.151.05.202.202.195.252-.006.503.007.755-.006.152-.006.202.05.196.202a63.02 63.02 0 0 0 0 1.543c0 .145-.038.22-.196.202-.031-.007-.063 0-.094 0-.277.025-.661-.126-.806.063-.139.176-.05.542-.05.825 0 1.714-.007 3.42.006 5.134 0 .24-.064.315-.303.297-.227-.02-.46 0-.693-.007-.68-.025-1.128-.485-1.128-1.165v-2.363z" fill="#02B9EF"></path></svg>