<svg width="24" height="24" viewBox="0 0 16 16" fill="none" xmlns="http://www.w3.org/2000/svg"><path fill-rule="evenodd" clip-rule="evenodd" d="M16 7.999a.82.82 0 0 1-.3.64l-.511.42a.346.346 0 0 0-.077.44l.338.567c.126.215.15.472.067.707a.809.809 0 0 1-.501.498l-.619.214a.34.34 0 0 0-.22.385l.126.653a.833.833 0 0 1-.175.687.813.813 0 0 1-.638.295l-.656-.013h-.005a.337.337 0 0 0-.33.288l-.102.655a.819.819 0 0 1-.397.585.798.798 0 0 1-.698.055l-.611-.238a.333.333 0 0 0-.412.152l-.318.583a.804.804 0 0 1-.713.425.817.817 0 0 1-.535-.2l-.493-.438a.328.328 0 0 0-.44 0l-.493.438a.81.81 0 0 1-1.245-.223l-.318-.582a.332.332 0 0 0-.412-.153l-.612.238a.798.798 0 0 1-.697-.055.82.82 0 0 1-.397-.585l-.102-.657a.338.338 0 0 0-.33-.288h-.007l-.656.013a.819.819 0 0 1-.814-.982l.125-.655a.34.34 0 0 0-.22-.385l-.618-.215a.81.81 0 0 1-.5-.497.82.82 0 0 1 .066-.708l.338-.567a.342.342 0 0 0-.077-.437l-.51-.42a.829.829 0 0 1 .002-1.28l.51-.42a.346.346 0 0 0 .077-.44l-.338-.567a.839.839 0 0 1-.066-.708.809.809 0 0 1 .5-.497l.62-.215a.34.34 0 0 0 .219-.385l-.126-.652a.833.833 0 0 1 .175-.687.846.846 0 0 1 .639-.295l.656.012c.155 0 .308-.12.335-.287l.101-.655a.82.82 0 0 1 .397-.585A.798.798 0 0 1 4.7.923l.612.238c.155.06.33-.005.412-.153l.318-.582a.804.804 0 0 1 .57-.413.796.796 0 0 1 .675.19l.494.438c.125.11.313.11.438 0l.494-.438a.81.81 0 0 1 1.245.222l.318.583a.332.332 0 0 0 .412.153L11.3.923c.23-.09.483-.07.698.055a.82.82 0 0 1 .397.585l.1.657a.34.34 0 0 0 .339.288l.656-.013a.795.795 0 0 1 .638.295.833.833 0 0 1 .175.687l-.125.653a.34.34 0 0 0 .22.385l.618.215a.81.81 0 0 1 .5.497.82.82 0 0 1-.066.707l-.338.568a.342.342 0 0 0 .077.437l.51.42c.19.157.301.39.301.64zM6 4.4a1.601 1.601 0 0 1 0 3.2 1.601 1.601 0 0 1 0-3.2zm-.004.748a.852.852 0 1 0 0 1.704.852.852 0 0 0 0-1.704zM10.7 5.3a.34.34 0 0 0-.482 0L5.3 10.22a.34.34 0 0 0 .243.58.34.34 0 0 0 .243-.099L10.7 5.786a.344.344 0 0 0 0-.486zM10 8.4a1.601 1.601 0 0 0 0 3.2 1.601 1.601 0 0 0 0-3.2zm0 2.456a.852.852 0 1 1 0-1.704.852.852 0 0 1 0 1.704z" fill="rgb(18,183,106)"></path></svg>