<svg width="52" height="32" viewBox="0 0 52 32" fill="none" xmlns="http://www.w3.org/2000/svg"><path d="M14.666 17.549A6.739 6.739 0 1 0 1.549 14.45a6.739 6.739 0 0 0 13.117 3.098z" fill="#5F259F"></path><path d="M11.167 14.242a.498.498 0 0 0-.49-.49h-.903l-2.07-2.372c-.189-.226-.49-.301-.791-.226l-.716.226c-.113.038-.15.188-.075.264l2.259 2.146H4.955c-.113 0-.188.075-.188.188v.376c0 .264.225.49.489.49h.527v1.807c0 1.355.715 2.146 1.92 2.146.377 0 .678-.038 1.054-.188v1.204c0 .34.264.603.603.603h.527a.243.243 0 0 0 .226-.226v-5.384h.866c.113 0 .188-.075.188-.188v-.377zm-2.41 3.237c-.225.113-.527.15-.753.15-.602 0-.903-.3-.903-.978v-1.807h1.656v2.635z" fill="#fff"></path><path d="M35.451 18.852v-2.447c0-.603-.226-.904-.79-.904-.226 0-.49.038-.64.075v3.577a.243.243 0 0 1-.226.226h-.866a.243.243 0 0 1-.226-.226v-4.179c0-.15.113-.264.226-.301a5.405 5.405 0 0 1 1.732-.301c1.355 0 2.108.715 2.108 2.033v2.786a.243.243 0 0 1-.226.226h-.527a.554.554 0 0 1-.565-.565zm3.389-1.468-.038.338c0 .452.301.716.79.716.377 0 .716-.113 1.093-.301.037 0 .075-.038.112-.038.076 0 .113.038.151.075.038.038.113.15.113.15.075.114.15.264.15.377a.522.522 0 0 1-.263.452c-.414.226-.904.339-1.43.339-.603 0-1.093-.15-1.469-.452a1.763 1.763 0 0 1-.602-1.355v-1.469c0-1.167.753-1.882 2.033-1.882 1.242 0 1.958.678 1.958 1.882v.904a.243.243 0 0 1-.226.226H38.84v.038zm-.038-.829h1.43v-.376c0-.452-.263-.753-.715-.753-.451 0-.715.263-.715.753v.376zm9.6.829-.037.338c0 .452.301.716.79.716.377 0 .716-.113 1.092-.301.038 0 .076-.038.113-.038.076 0 .113.038.15.075.039.038.114.15.114.15.075.114.15.264.15.377a.522.522 0 0 1-.263.452c-.414.226-.904.339-1.43.339-.603 0-1.093-.15-1.47-.452a1.763 1.763 0 0 1-.601-1.355v-1.469c0-1.167.753-1.882 2.033-1.882 1.242 0 1.957.678 1.957 1.882v.904a.243.243 0 0 1-.225.226h-2.372v.038zm-.037-.829h1.43v-.376c0-.452-.263-.753-.715-.753-.451 0-.715.263-.715.753v.376zm-22.138 2.862h.527a.243.243 0 0 0 .226-.226v-2.786c0-1.28-.678-2.033-1.807-2.033-.339 0-.715.075-.941.15V13.13a.579.579 0 0 0-.565-.564h-.527a.243.243 0 0 0-.226.225v6.4c0 .114.113.227.226.227h.866a.243.243 0 0 0 .226-.226v-3.54c.188-.075.451-.112.64-.112.564 0 .79.263.79.903v2.448c.038.263.264.527.565.527zm5.685-3.163v1.393c0 1.167-.79 1.883-2.108 1.883-1.28 0-2.108-.716-2.108-1.883v-1.393c0-1.167.79-1.882 2.108-1.882s2.108.715 2.108 1.882zm-1.317 0c0-.452-.264-.753-.753-.753-.49 0-.753.264-.753.753v1.393c0 .452.263.715.753.715.489 0 .753-.263.753-.715v-1.393zm-8.396-.64c0 1.205-.904 2.033-2.109 2.033-.3 0-.564-.038-.828-.15v1.694a.243.243 0 0 1-.226.226h-.866a.243.243 0 0 1-.226-.226v-5.986c0-.151.113-.264.226-.302a5.402 5.402 0 0 1 1.732-.3c1.355 0 2.297.827 2.297 2.107v.904zm-1.356-.979c0-.602-.414-.903-.979-.903a1.37 1.37 0 0 0-.564.113v2.484c.226.113.339.151.602.151.565 0 .979-.339.979-.904v-.94h-.038zm25.677.979c0 1.205-.904 2.033-2.108 2.033-.301 0-.565-.038-.828-.15v1.694a.243.243 0 0 1-.226.226h-.866a.243.243 0 0 1-.226-.226v-5.986c0-.151.113-.264.226-.302a5.402 5.402 0 0 1 1.732-.3c1.355 0 2.296.827 2.296 2.107v.904zm-1.355-.979c0-.602-.414-.903-.98-.903a1.37 1.37 0 0 0-.564.113v2.484c.226.113.339.151.602.151.565 0 .98-.339.98-.904v-.94h-.038z" fill="#5F259F"></path></svg>