<svg width="40" height="32" viewBox="0 0 40 32" fill="none" xmlns="http://www.w3.org/2000/svg"><path d="M37.807 12.404 40 16.764l-4.613 4.367 2.42-8.727z" fill="#018C45"></path><path d="m36.282 12.404 2.194 4.36-4.614 4.367 2.42-8.727z" fill="#F47920"></path><path d="M4.639 15.045h1.064c.376 0 .649-.052.818-.162.168-.11.298-.299.37-.571.077-.28.058-.468-.053-.578-.11-.11-.376-.162-.791-.162H5.04l-.402 1.473zM1.07 19.54l2.193-7.89h3.504c1.097 0 1.823.176 2.2.532.37.357.44.935.22 1.746-.136.48-.337.882-.623 1.2a2.874 2.874 0 0 1-1.096.753c.383.09.63.272.74.551.11.273.097.675-.04 1.2l-.265 1.104v.032c-.078.312-.052.474.07.487l-.077.292H5.528c.006-.188.026-.35.039-.493.02-.143.039-.253.058-.331l.22-.785c.111-.41.118-.695.014-.863-.104-.17-.338-.253-.708-.253H4.16l-.772 2.718H1.07zm14.606-5.82-1.616 5.82H12.1l.24-.85c-.343.338-.7.597-1.057.76-.35.168-.727.252-1.116.252-.324 0-.603-.058-.824-.175a1.15 1.15 0 0 1-.513-.525c-.103-.201-.142-.454-.13-.76.02-.298.124-.797.319-1.498l.837-3.024h2.147l-.837 3.004c-.123.441-.15.753-.09.915.064.169.226.26.492.26a.9.9 0 0 0 .688-.299c.188-.201.338-.493.448-.889l.83-2.997h2.142v.006zm2.77 1.48h.76c.486 0 .83-.059 1.03-.176.195-.117.332-.33.416-.63.084-.304.065-.512-.065-.628-.123-.117-.434-.176-.94-.176h-.753l-.448 1.61zm-3.549 4.34 2.187-7.89h3.01c.662 0 1.181.04 1.544.124.364.084.656.214.863.402.266.247.428.551.5.921.065.364.026.792-.11 1.298-.247.882-.675 1.557-1.285 2.03-.617.468-1.376.702-2.278.702h-1.407l-.675 2.413h-2.349zm11.037-2.602c-.227.091-.526.182-.89.273-.577.156-.901.363-.973.616-.051.163-.026.292.052.39.078.09.214.136.41.136.356 0 .641-.091.856-.266.214-.182.376-.46.486-.85.02-.084.04-.143.046-.188l.013-.11zm-.52 2.602.02-.551c-.344.26-.694.454-1.051.577-.35.123-.727.188-1.123.188-.61 0-1.031-.162-1.278-.486-.24-.318-.279-.779-.117-1.37.156-.577.442-1.005.844-1.278.402-.272 1.077-.473 2.024-.596.117-.02.28-.033.48-.059.701-.078 1.09-.266 1.175-.57.045-.17.02-.293-.085-.364-.097-.078-.285-.117-.551-.117a.983.983 0 0 0-.551.143.835.835 0 0 0-.331.441h-2.09a2.413 2.413 0 0 1 1.155-1.48c.578-.337 1.337-.499 2.284-.499.441 0 .844.039 1.194.13.35.084.61.207.772.357.208.188.325.395.363.629.04.234-.006.571-.123 1.006l-.902 3.244a.73.73 0 0 0-.02.285c.02.085.053.156.118.201l-.046.163h-2.16v.006zm2.174 2.297.474-1.726h.616c.208 0 .364-.039.48-.117.117-.078.195-.207.24-.382a.977.977 0 0 0 .046-.247 2.588 2.588 0 0 0 0-.318l-.331-5.333h2.174l-.033 3.53 1.895-3.53h2.018l-3.355 5.794c-.383.649-.655 1.09-.83 1.336-.176.24-.338.429-.5.552a1.823 1.823 0 0 1-.688.37c-.253.071-.63.11-1.142.11-.149 0-.318 0-.5-.013-.175 0-.37-.013-.564-.026z" fill="#29387E"></path></svg>