<svg width="44" height="32" viewBox="0 0 44 32" fill="none" xmlns="http://www.w3.org/2000/svg"><path fill-rule="evenodd" clip-rule="evenodd" d="M33.321 20.213 38 15.945l-2.216-4.415-2.463 8.683z" fill="#097939"></path><path fill-rule="evenodd" clip-rule="evenodd" d="m31.745 20.213 4.679-4.268-2.216-4.415-2.463 8.683z" fill="#ED752E"></path><path fill-rule="evenodd" clip-rule="evenodd" d="m9.388 11.58-1.97 7.015 6.993.049 1.92-7.064h1.773l-2.303 8.212a.824.824 0 0 1-.75.568H6.089c-.543 0-.865-.424-.718-.947l2.196-7.833h1.822zm21.619-.05h1.773l-2.463 8.83h-1.823l2.513-8.83zM18.3 15.21l8.865-.05.591-1.864h-9.013l.542-1.716 9.604-.089c.598-.005.954.458.796 1.035l-.904 3.307c-.158.577-.771 1.044-1.37 1.044h-7.929l-.934 3.63h-1.725L18.3 15.21z" fill="#747474"></path></svg>