<svg width="32" height="32" viewBox="0 0 32 32" fill="none" xmlns="http://www.w3.org/2000/svg"><path d="M14.209 20.223H12.01l1.374-8.44h2.198l-1.374 8.44zm-4.046-8.44-2.095 5.805-.248-1.25-.74-3.795s-.089-.76-1.042-.76H2.575l-.04.143s1.058.22 2.298.964l1.909 7.333h2.29l3.496-8.44h-2.365zm17.284 8.44h2.018l-1.76-8.44H25.94c-.816 0-1.014.628-1.014.628l-3.278 7.812h2.291l.458-1.254h2.794l.257 1.254zm-2.418-2.985 1.155-3.16.65 3.16h-1.805zm-3.21-3.426L22.133 12s-.968-.368-1.977-.368c-1.09 0-3.68.476-3.68 2.794 0 2.18 3.04 2.208 3.04 3.353s-2.727.94-3.626.218l-.327 1.895s.981.477 2.48.477c1.5 0 3.762-.777 3.762-2.89 0-2.194-3.067-2.399-3.067-3.353 0-.954 2.14-.832 3.081-.314z" fill="#2566AF"></path><path d="m7.82 16.338-.74-3.796s-.089-.76-1.042-.76H2.575l-.04.143s1.664.345 3.26 1.638c1.527 1.235 2.025 2.775 2.025 2.775z" fill="#E6A540"></path></svg>