<svg width="35" height="35" viewBox="0 0 35 35" fill="none" xmlns="http://www.w3.org/2000/svg">
<circle cx="17.5" cy="17.5" r="17.5" fill="#008060"/>
<path d="M9.5 13V23H18.1C17.9232 22.4621 17.8332 21.8995 17.8333 21.3333H12.8333C12.8333 20.8913 12.6577 20.4674 12.3452 20.1548C12.0326 19.8423 11.6087 19.6667 11.1667 19.6667V16.3333C12.0917 16.3333 12.8333 15.5917 12.8333 14.6667H21.1667C21.1667 15.1087 21.3423 15.5326 21.6548 15.8452C21.9674 16.1577 22.3913 16.3333 22.8333 16.3333V16.3833C23.3917 16.3833 23.95 16.4833 24.5 16.6667V13H9.5ZM17 15.5C15.5833 15.525 14.5 16.5833 14.5 18C14.5 19.4167 15.5833 20.45 17 20.5C17.3167 20.5 17.6417 20.4333 17.95 20.3083C18.175 19.3917 18.55 18.525 19.475 17.675C19.375 16.5667 18.325 15.475 17 15.5ZM25.025 18.225L21.8 21.475L20.675 20.3333L19.5 21.5167L21.7917 23.8333L26.1917 19.4L25.025 18.225Z" fill="white"/>
</svg>
