<svg width="35" height="35" viewBox="0 0 35 35" fill="none" xmlns="http://www.w3.org/2000/svg">
<circle cx="17.5" cy="17.5" r="17.5" fill="#008060"/>
<path d="M9.50001 19.25L8.87501 18H13.25L12.75 16.75H8.66668L8.04168 15.5H14.5417L14.0417 14.25H7.92501L7.20834 13H10.3333C10.3333 12.558 10.5089 12.1341 10.8215 11.8215C11.1341 11.5089 11.558 11.3333 12 11.3333H22V14.6667H24.5L27 18V22.1667H25.3333C25.3333 22.8297 25.07 23.4656 24.6011 23.9344C24.1323 24.4033 23.4964 24.6667 22.8333 24.6667C22.1703 24.6667 21.5344 24.4033 21.0656 23.9344C20.5967 23.4656 20.3333 22.8297 20.3333 22.1667H17C17 22.8297 16.7366 23.4656 16.2678 23.9344C15.7989 24.4033 15.1631 24.6667 14.5 24.6667C13.837 24.6667 13.2011 24.4033 12.7322 23.9344C12.2634 23.4656 12 22.8297 12 22.1667H10.3333V19.25H9.50001ZM22.8333 23.4167C23.1649 23.4167 23.4828 23.285 23.7172 23.0506C23.9516 22.8161 24.0833 22.4982 24.0833 22.1667C24.0833 21.8352 23.9516 21.5172 23.7172 21.2828C23.4828 21.0484 23.1649 20.9167 22.8333 20.9167C22.5018 20.9167 22.1839 21.0484 21.9495 21.2828C21.715 21.5172 21.5833 21.8352 21.5833 22.1667C21.5833 22.4982 21.715 22.8161 21.9495 23.0506C22.1839 23.285 22.5018 23.4167 22.8333 23.4167ZM24.0833 15.9167H22V18H25.7167L24.0833 15.9167ZM14.5 23.4167C14.8315 23.4167 15.1495 23.285 15.3839 23.0506C15.6183 22.8161 15.75 22.4982 15.75 22.1667C15.75 21.8352 15.6183 21.5172 15.3839 21.2828C15.1495 21.0484 14.8315 20.9167 14.5 20.9167C14.1685 20.9167 13.8505 21.0484 13.6161 21.2828C13.3817 21.5172 13.25 21.8352 13.25 22.1667C13.25 22.4982 13.3817 22.8161 13.6161 23.0506C13.8505 23.285 14.1685 23.4167 14.5 23.4167Z" fill="white"/>
</svg>
