<svg width="35" height="35" viewBox="0 0 35 35" fill="none" xmlns="http://www.w3.org/2000/svg">
<circle cx="17.5" cy="17.5" r="17.5" fill="#008060"/>
<path d="M23.6108 18.8675C23.4535 20.0675 22.9724 21.2019 22.2193 22.1493C21.4662 23.0966 20.4694 23.8211 19.3358 24.245C18.2022 24.6689 16.9747 24.7762 15.7847 24.5555C14.5948 24.3347 13.4874 23.7942 12.5813 22.9919C11.6752 22.1896 11.0046 21.1558 10.6414 20.0014C10.2782 18.8469 10.2361 17.6154 10.5196 16.4388C10.8032 15.2623 11.4016 14.1851 12.2508 13.3228C13.1 12.4605 14.1679 11.8456 15.34 11.5442C18.5892 10.7108 21.9525 12.3833 23.1942 15.5" stroke="white" strokeWidth="2" strokeLinecap="round" strokeLinejoin="round"/>
<path d="M23.6667 11.3333V15.5H19.5" stroke="white" strokeWidth="2" strokeLinecap="round" strokeLinejoin="round"/>
</svg>
