<svg width="30" height="30" viewBox="0 0 30 30" fill="none" xmlns="http://www.w3.org/2000/svg">
<rect x="0.25" y="0.25" width="29.5" height="29.5" rx="14.75" stroke="black" stroke-opacity="0.71" stroke-width="0.5"/>
<path d="M18.1667 23.3333C17.4722 23.3333 16.8819 23.0903 16.3958 22.6042C15.9097 22.1181 15.6667 21.5278 15.6667 20.8333C15.6667 20.75 15.6875 20.5556 15.7292 20.25L9.875 16.8333C9.65278 17.0417 9.39583 17.205 9.10417 17.3233C8.8125 17.4417 8.5 17.5006 8.16667 17.5C7.47222 17.5 6.88194 17.2569 6.39583 16.7708C5.90972 16.2847 5.66667 15.6944 5.66667 15C5.66667 14.3056 5.90972 13.7153 6.39583 13.2292C6.88194 12.7431 7.47222 12.5 8.16667 12.5C8.5 12.5 8.8125 12.5592 9.10417 12.6775C9.39583 12.7958 9.65278 12.9589 9.875 13.1667L15.7292 9.75C15.7014 9.65278 15.6842 9.55917 15.6775 9.46917C15.6708 9.37917 15.6672 9.27834 15.6667 9.16667C15.6667 8.47223 15.9097 7.88195 16.3958 7.39584C16.8819 6.90973 17.4722 6.66667 18.1667 6.66667C18.8611 6.66667 19.4514 6.90973 19.9375 7.39584C20.4236 7.88195 20.6667 8.47223 20.6667 9.16667C20.6667 9.86112 20.4236 10.4514 19.9375 10.9375C19.4514 11.4236 18.8611 11.6667 18.1667 11.6667C17.8333 11.6667 17.5208 11.6075 17.2292 11.4892C16.9375 11.3708 16.6806 11.2078 16.4583 11L10.6042 14.4167C10.6319 14.5139 10.6494 14.6078 10.6567 14.6983C10.6639 14.7889 10.6672 14.8894 10.6667 15C10.6661 15.1106 10.6628 15.2114 10.6567 15.3025C10.6506 15.3936 10.6331 15.4872 10.6042 15.5833L16.4583 19C16.6806 18.7917 16.9375 18.6286 17.2292 18.5108C17.5208 18.3931 17.8333 18.3339 18.1667 18.3333C18.8611 18.3333 19.4514 18.5764 19.9375 19.0625C20.4236 19.5486 20.6667 20.1389 20.6667 20.8333C20.6667 21.5278 20.4236 22.1181 19.9375 22.6042C19.4514 23.0903 18.8611 23.3333 18.1667 23.3333ZM18.1667 21.6667C18.4028 21.6667 18.6008 21.5869 18.7608 21.4275C18.9208 21.2681 19.0006 21.07 19 20.8333C18.9994 20.5967 18.9194 20.3989 18.76 20.24C18.6006 20.0811 18.4028 20.0011 18.1667 20C17.9306 19.9989 17.7328 20.0789 17.5733 20.24C17.4139 20.4011 17.3339 20.5989 17.3333 20.8333C17.3328 21.0678 17.4128 21.2658 17.5733 21.4275C17.7339 21.5892 17.9317 21.6689 18.1667 21.6667ZM8.16667 15.8333C8.40278 15.8333 8.60083 15.7533 8.76083 15.5933C8.92083 15.4333 9.00056 15.2356 9 15C8.99944 14.7644 8.91944 14.5667 8.76 14.4067C8.60056 14.2467 8.40278 14.1667 8.16667 14.1667C7.93056 14.1667 7.73278 14.2467 7.57333 14.4067C7.41389 14.5667 7.33389 14.7644 7.33333 15C7.33278 15.2356 7.41278 15.4336 7.57333 15.5942C7.73389 15.7547 7.93167 15.8344 8.16667 15.8333ZM18.1667 10C18.4028 10 18.6008 9.92 18.7608 9.76C18.9208 9.6 19.0006 9.40223 19 9.16667C18.9994 8.93112 18.9194 8.73334 18.76 8.57334C18.6006 8.41334 18.4028 8.33334 18.1667 8.33334C17.9306 8.33334 17.7328 8.41334 17.5733 8.57334C17.4139 8.73334 17.3339 8.93112 17.3333 9.16667C17.3328 9.40223 17.4128 9.60028 17.5733 9.76084C17.7339 9.92139 17.9317 10.0011 18.1667 10Z" fill="#444444"/>
</svg>
